<mxfile host="65bd71144e" pages="2">
    <diagram id="Ht1M8jgEwFfnCIfOTk4-" name="Overall">
        <mxGraphModel dx="1252" dy="995" grid="1" gridSize="10" guides="1" tooltips="1" connect="1" arrows="1" fold="1" page="1" pageScale="1" pageWidth="1169" pageHeight="827" background="none" math="0" shadow="0">
            <root>
                <mxCell id="0"/>
                <mxCell id="1" parent="0"/>
                <mxCell id="mq3SE_XhixBoud5put96-3" value="Public subnet" style="points=[[0,0],[0.25,0],[0.5,0],[0.75,0],[1,0],[1,0.25],[1,0.5],[1,0.75],[1,1],[0.75,1],[0.5,1],[0.25,1],[0,1],[0,0.75],[0,0.5],[0,0.25]];outlineConnect=0;gradientColor=none;html=1;whiteSpace=wrap;fontSize=12;fontStyle=0;container=1;pointerEvents=0;collapsible=0;recursiveResize=0;shape=mxgraph.aws4.group;grIcon=mxgraph.aws4.group_security_group;grStroke=0;strokeColor=#7AA116;fillColor=#F2F6E8;verticalAlign=top;align=left;spacingLeft=30;fontColor=#248814;dashed=0;" parent="1" vertex="1">
                    <mxGeometry x="220" y="250" width="520" height="190" as="geometry"/>
                </mxCell>
                <mxCell id="mq3SE_XhixBoud5put96-2" value="Private subnet" style="points=[[0,0],[0.25,0],[0.5,0],[0.75,0],[1,0],[1,0.25],[1,0.5],[1,0.75],[1,1],[0.75,1],[0.5,1],[0.25,1],[0,1],[0,0.75],[0,0.5],[0,0.25]];outlineConnect=0;gradientColor=none;html=1;whiteSpace=wrap;fontSize=12;fontStyle=0;container=1;pointerEvents=0;collapsible=0;recursiveResize=0;shape=mxgraph.aws4.group;grIcon=mxgraph.aws4.group_security_group;grStroke=0;strokeColor=#00A4A6;fillColor=#E6F6F7;verticalAlign=top;align=left;spacingLeft=30;fontColor=#147EBA;dashed=0;" parent="1" vertex="1">
                    <mxGeometry x="220" y="460" width="520" height="400" as="geometry"/>
                </mxCell>
                <mxCell id="lPzszU0twEAOWUQWt1GQ-1" value="&lt;font color=&quot;#000000&quot; style=&quot;font-size: 14px;&quot;&gt;&lt;b&gt;VPC&lt;/b&gt;&lt;/font&gt;" style="points=[[0,0],[0.25,0],[0.5,0],[0.75,0],[1,0],[1,0.25],[1,0.5],[1,0.75],[1,1],[0.75,1],[0.5,1],[0.25,1],[0,1],[0,0.75],[0,0.5],[0,0.25]];outlineConnect=0;gradientColor=none;html=1;whiteSpace=wrap;fontSize=12;fontStyle=0;container=0;pointerEvents=0;collapsible=0;recursiveResize=0;shape=mxgraph.aws4.group;grIcon=mxgraph.aws4.group_vpc2;strokeColor=#8C4FFF;fillColor=none;verticalAlign=top;align=left;spacingLeft=30;fontColor=#AAB7B8;dashed=0;strokeWidth=2;" parent="1" vertex="1">
                    <mxGeometry x="200" y="200" width="560" height="680" as="geometry"/>
                </mxCell>
                <mxCell id="lPzszU0twEAOWUQWt1GQ-22" value="&lt;b&gt;&lt;font style=&quot;font-size: 14px;&quot;&gt;CloudWatch&lt;/font&gt;&lt;/b&gt;" style="sketch=0;points=[[0,0,0],[0.25,0,0],[0.5,0,0],[0.75,0,0],[1,0,0],[0,1,0],[0.25,1,0],[0.5,1,0],[0.75,1,0],[1,1,0],[0,0.25,0],[0,0.5,0],[0,0.75,0],[1,0.25,0],[1,0.5,0],[1,0.75,0]];points=[[0,0,0],[0.25,0,0],[0.5,0,0],[0.75,0,0],[1,0,0],[0,1,0],[0.25,1,0],[0.5,1,0],[0.75,1,0],[1,1,0],[0,0.25,0],[0,0.5,0],[0,0.75,0],[1,0.25,0],[1,0.5,0],[1,0.75,0]];outlineConnect=0;fontColor=#232F3E;fillColor=#E7157B;strokeColor=#ffffff;dashed=0;verticalLabelPosition=bottom;verticalAlign=top;align=center;html=1;fontSize=12;fontStyle=0;aspect=fixed;shape=mxgraph.aws4.resourceIcon;resIcon=mxgraph.aws4.cloudwatch_2;fontFamily=Helvetica;" parent="1" vertex="1">
                    <mxGeometry x="90" y="239" width="78" height="78" as="geometry"/>
                </mxCell>
                <mxCell id="Khtyj_BIVU3kx0kz_q9r-6" style="edgeStyle=none;rounded=0;orthogonalLoop=1;jettySize=auto;html=1;strokeColor=default;strokeWidth=1.5;align=center;verticalAlign=middle;fontFamily=Helvetica;fontSize=11;fontColor=default;labelBackgroundColor=default;endArrow=classic;entryX=0.5;entryY=0;entryDx=0;entryDy=0;entryPerimeter=0;" parent="1" source="Khtyj_BIVU3kx0kz_q9r-1" target="Khtyj_BIVU3kx0kz_q9r-11" edge="1">
                    <mxGeometry relative="1" as="geometry">
                        <mxPoint x="479" y="370" as="targetPoint"/>
                    </mxGeometry>
                </mxCell>
                <mxCell id="Khtyj_BIVU3kx0kz_q9r-1" value="" style="sketch=0;points=[[0,0,0],[0.25,0,0],[0.5,0,0],[0.75,0,0],[1,0,0],[0,1,0],[0.25,1,0],[0.5,1,0],[0.75,1,0],[1,1,0],[0,0.25,0],[0,0.5,0],[0,0.75,0],[1,0.25,0],[1,0.5,0],[1,0.75,0]];outlineConnect=0;fontColor=#232F3E;fillColor=#8C4FFF;strokeColor=#ffffff;dashed=0;verticalLabelPosition=bottom;verticalAlign=top;align=center;html=1;fontSize=12;fontStyle=0;aspect=fixed;shape=mxgraph.aws4.resourceIcon;resIcon=mxgraph.aws4.route_53;fontFamily=Helvetica;labelBackgroundColor=default;" parent="1" vertex="1">
                    <mxGeometry x="440" y="161" width="78" height="78" as="geometry"/>
                </mxCell>
                <mxCell id="Khtyj_BIVU3kx0kz_q9r-4" style="edgeStyle=none;rounded=0;orthogonalLoop=1;jettySize=auto;html=1;strokeColor=default;align=center;verticalAlign=middle;fontFamily=Helvetica;fontSize=11;fontColor=default;labelBackgroundColor=default;endArrow=classic;entryX=0.5;entryY=0;entryDx=0;entryDy=0;entryPerimeter=0;strokeWidth=1.5;" parent="1" target="Khtyj_BIVU3kx0kz_q9r-1" edge="1">
                    <mxGeometry relative="1" as="geometry">
                        <mxPoint x="479" y="110" as="sourcePoint"/>
                        <mxPoint x="474" y="100" as="targetPoint"/>
                    </mxGeometry>
                </mxCell>
                <mxCell id="Khtyj_BIVU3kx0kz_q9r-18" style="edgeStyle=none;rounded=0;orthogonalLoop=1;jettySize=auto;html=1;entryX=0.5;entryY=0;entryDx=0;entryDy=0;strokeColor=default;strokeWidth=1.5;align=center;verticalAlign=middle;fontFamily=Helvetica;fontSize=14;fontColor=#232F3E;fontStyle=1;labelBackgroundColor=default;endArrow=classic;" parent="1" source="Khtyj_BIVU3kx0kz_q9r-12" target="Khtyj_BIVU3kx0kz_q9r-9" edge="1">
                    <mxGeometry relative="1" as="geometry"/>
                </mxCell>
                <mxCell id="Khtyj_BIVU3kx0kz_q9r-34" value="&lt;font style=&quot;font-size: 13px;&quot;&gt;Packer Pipeline&lt;/font&gt;" style="edgeLabel;html=1;align=center;verticalAlign=middle;resizable=0;points=[];dashed=0;sketch=0;strokeColor=#ffffff;fontFamily=Helvetica;fontSize=12;fontColor=#232F3E;fontStyle=1;labelBackgroundColor=default;fillColor=#ED7100;" parent="Khtyj_BIVU3kx0kz_q9r-18" connectable="0" vertex="1">
                    <mxGeometry x="0.1619" y="2" relative="1" as="geometry">
                        <mxPoint as="offset"/>
                    </mxGeometry>
                </mxCell>
                <mxCell id="Khtyj_BIVU3kx0kz_q9r-12" value="&lt;font style=&quot;font-size: 14px;&quot;&gt;&lt;b&gt;Lambda Check AMI&lt;/b&gt;&lt;/font&gt;" style="sketch=0;points=[[0,0,0],[0.25,0,0],[0.5,0,0],[0.75,0,0],[1,0,0],[0,1,0],[0.25,1,0],[0.5,1,0],[0.75,1,0],[1,1,0],[0,0.25,0],[0,0.5,0],[0,0.75,0],[1,0.25,0],[1,0.5,0],[1,0.75,0]];outlineConnect=0;fontColor=#232F3E;fillColor=#ED7100;strokeColor=#ffffff;dashed=0;verticalLabelPosition=bottom;verticalAlign=top;align=center;html=1;fontSize=12;fontStyle=0;aspect=fixed;shape=mxgraph.aws4.resourceIcon;resIcon=mxgraph.aws4.lambda;fontFamily=Helvetica;labelBackgroundColor=default;" parent="1" vertex="1">
                    <mxGeometry x="795.5" y="83" width="78" height="78" as="geometry"/>
                </mxCell>
                <mxCell id="Khtyj_BIVU3kx0kz_q9r-16" value="&lt;font style=&quot;font-size: 14px;&quot;&gt;&lt;b&gt;EventBridge&lt;/b&gt;&lt;/font&gt;" style="sketch=0;points=[[0,0,0],[0.25,0,0],[0.5,0,0],[0.75,0,0],[1,0,0],[0,1,0],[0.25,1,0],[0.5,1,0],[0.75,1,0],[1,1,0],[0,0.25,0],[0,0.5,0],[0,0.75,0],[1,0.25,0],[1,0.5,0],[1,0.75,0]];outlineConnect=0;fontColor=#232F3E;fillColor=#E7157B;strokeColor=#ffffff;dashed=0;verticalLabelPosition=bottom;verticalAlign=top;align=center;html=1;fontSize=12;fontStyle=0;aspect=fixed;shape=mxgraph.aws4.resourceIcon;resIcon=mxgraph.aws4.eventbridge;fontFamily=Helvetica;labelBackgroundColor=default;" parent="1" vertex="1">
                    <mxGeometry x="660" y="83" width="78" height="78" as="geometry"/>
                </mxCell>
                <mxCell id="Khtyj_BIVU3kx0kz_q9r-17" style="edgeStyle=none;rounded=0;orthogonalLoop=1;jettySize=auto;html=1;entryX=0;entryY=0.5;entryDx=0;entryDy=0;entryPerimeter=0;strokeColor=default;strokeWidth=1.5;align=center;verticalAlign=middle;fontFamily=Helvetica;fontSize=14;fontColor=#232F3E;fontStyle=1;labelBackgroundColor=default;endArrow=classic;" parent="1" source="Khtyj_BIVU3kx0kz_q9r-16" target="Khtyj_BIVU3kx0kz_q9r-12" edge="1">
                    <mxGeometry relative="1" as="geometry"/>
                </mxCell>
                <mxCell id="Khtyj_BIVU3kx0kz_q9r-42" style="edgeStyle=orthogonalEdgeStyle;rounded=0;orthogonalLoop=1;jettySize=auto;html=1;strokeColor=default;strokeWidth=1.5;align=center;verticalAlign=middle;fontFamily=Helvetica;fontSize=14;fontColor=#232F3E;fontStyle=1;labelBackgroundColor=default;endArrow=classic;" parent="1" source="Khtyj_BIVU3kx0kz_q9r-9" target="Khtyj_BIVU3kx0kz_q9r-19" edge="1">
                    <mxGeometry relative="1" as="geometry">
                        <Array as="points">
                            <mxPoint x="840" y="576"/>
                        </Array>
                    </mxGeometry>
                </mxCell>
                <mxCell id="Khtyj_BIVU3kx0kz_q9r-43" value="Deploy" style="edgeLabel;html=1;align=center;verticalAlign=middle;resizable=0;points=[];dashed=0;sketch=0;strokeColor=#ffffff;fontFamily=Helvetica;fontSize=13;fontColor=#232F3E;fontStyle=1;labelBackgroundColor=default;fillColor=#ED7100;" parent="Khtyj_BIVU3kx0kz_q9r-42" connectable="0" vertex="1">
                    <mxGeometry x="-0.1992" y="-2" relative="1" as="geometry">
                        <mxPoint x="-36" y="1" as="offset"/>
                    </mxGeometry>
                </mxCell>
                <mxCell id="Khtyj_BIVU3kx0kz_q9r-9" value="Jenkins" style="shape=image;verticalLabelPosition=bottom;labelBackgroundColor=default;verticalAlign=top;aspect=fixed;imageAspect=0;image=https://upload.wikimedia.org/wikipedia/commons/thumb/e/e9/Jenkins_logo.svg/1200px-Jenkins_logo.svg.png;fontSize=14;fontStyle=1" parent="1" vertex="1">
                    <mxGeometry x="790" y="320" width="89" height="122.9" as="geometry"/>
                </mxCell>
                <mxCell id="Khtyj_BIVU3kx0kz_q9r-14" value="&lt;font style=&quot;font-size: 14px;&quot;&gt;&lt;b&gt;ECR&lt;/b&gt;&lt;/font&gt;" style="sketch=0;points=[[0,0,0],[0.25,0,0],[0.5,0,0],[0.75,0,0],[1,0,0],[0,1,0],[0.25,1,0],[0.5,1,0],[0.75,1,0],[1,1,0],[0,0.25,0],[0,0.5,0],[0,0.75,0],[1,0.25,0],[1,0.5,0],[1,0.75,0]];outlineConnect=0;fontColor=#232F3E;fillColor=#ED7100;strokeColor=#ffffff;dashed=0;verticalLabelPosition=bottom;verticalAlign=top;align=center;html=1;fontSize=12;fontStyle=0;aspect=fixed;shape=mxgraph.aws4.resourceIcon;resIcon=mxgraph.aws4.ecr;fontFamily=Helvetica;labelBackgroundColor=default;" parent="1" vertex="1">
                    <mxGeometry x="940.5" y="449.99999999999994" width="78" height="78" as="geometry"/>
                </mxCell>
                <mxCell id="Khtyj_BIVU3kx0kz_q9r-15" style="edgeStyle=none;rounded=0;orthogonalLoop=1;jettySize=auto;html=1;strokeColor=default;strokeWidth=1.5;align=center;verticalAlign=middle;fontFamily=Helvetica;fontSize=14;fontColor=#232F3E;fontStyle=1;labelBackgroundColor=default;endArrow=classic;" parent="1" source="Khtyj_BIVU3kx0kz_q9r-9" target="Khtyj_BIVU3kx0kz_q9r-14" edge="1">
                    <mxGeometry relative="1" as="geometry"/>
                </mxCell>
                <mxCell id="Khtyj_BIVU3kx0kz_q9r-41" value="&lt;font style=&quot;font-size: 13px;&quot;&gt;Push Image&lt;/font&gt;" style="edgeLabel;html=1;align=center;verticalAlign=middle;resizable=0;points=[];dashed=0;sketch=0;strokeColor=#ffffff;fontFamily=Helvetica;fontSize=14;fontColor=#232F3E;fontStyle=1;labelBackgroundColor=default;fillColor=#ED7100;" parent="Khtyj_BIVU3kx0kz_q9r-15" connectable="0" vertex="1">
                    <mxGeometry x="-0.4505" y="2" relative="1" as="geometry">
                        <mxPoint x="29" y="1" as="offset"/>
                    </mxGeometry>
                </mxCell>
                <mxCell id="Khtyj_BIVU3kx0kz_q9r-36" style="edgeStyle=none;rounded=0;orthogonalLoop=1;jettySize=auto;html=1;strokeColor=default;strokeWidth=1.5;align=center;verticalAlign=middle;fontFamily=Helvetica;fontSize=14;fontColor=#232F3E;fontStyle=1;labelBackgroundColor=default;endArrow=classic;" parent="1" source="Khtyj_BIVU3kx0kz_q9r-19" target="Khtyj_BIVU3kx0kz_q9r-35" edge="1">
                    <mxGeometry relative="1" as="geometry"/>
                </mxCell>
                <mxCell id="muPX8e16Yk-2uvlEu1JS-8" style="rounded=0;orthogonalLoop=1;jettySize=auto;html=1;" parent="1" source="Khtyj_BIVU3kx0kz_q9r-19" target="muPX8e16Yk-2uvlEu1JS-4" edge="1">
                    <mxGeometry relative="1" as="geometry"/>
                </mxCell>
                <mxCell id="muPX8e16Yk-2uvlEu1JS-9" value="&lt;font style=&quot;color: rgb(35, 47, 62); font-weight: 700; font-size: 13px;&quot;&gt;Check&lt;/font&gt;&lt;div style=&quot;color: rgb(35, 47, 62); font-size: 14px; font-weight: 700;&quot;&gt;&lt;font style=&quot;font-size: 13px;&quot;&gt;Non-Compliant&lt;/font&gt;&lt;/div&gt;" style="edgeLabel;html=1;align=center;verticalAlign=middle;resizable=0;points=[];" parent="muPX8e16Yk-2uvlEu1JS-8" connectable="0" vertex="1">
                    <mxGeometry x="-0.0417" y="-2" relative="1" as="geometry">
                        <mxPoint x="21" as="offset"/>
                    </mxGeometry>
                </mxCell>
                <mxCell id="Khtyj_BIVU3kx0kz_q9r-19" value="&lt;font style=&quot;font-size: 14px;&quot;&gt;&lt;b&gt;Auto Scaling group&lt;/b&gt;&lt;/font&gt;" style="points=[[0,0],[0.25,0],[0.5,0],[0.75,0],[1,0],[1,0.25],[1,0.5],[1,0.75],[1,1],[0.75,1],[0.5,1],[0.25,1],[0,1],[0,0.75],[0,0.5],[0,0.25]];outlineConnect=0;gradientColor=none;html=1;whiteSpace=wrap;fontSize=12;fontStyle=0;container=1;pointerEvents=0;collapsible=0;recursiveResize=0;shape=mxgraph.aws4.groupCenter;grIcon=mxgraph.aws4.group_auto_scaling_group;grStroke=1;strokeColor=#D86613;fillColor=none;verticalAlign=top;align=center;fontColor=#D86613;dashed=1;spacingTop=25;sketch=0;fontFamily=Helvetica;labelBackgroundColor=default;strokeWidth=2;" parent="1" vertex="1">
                    <mxGeometry x="340" y="482.9" width="280" height="187.1" as="geometry"/>
                </mxCell>
                <mxCell id="Khtyj_BIVU3kx0kz_q9r-20" value="&lt;font style=&quot;font-size: 14px;&quot;&gt;&lt;b&gt;App&lt;/b&gt;&lt;/font&gt;" style="sketch=0;points=[[0,0,0],[0.25,0,0],[0.5,0,0],[0.75,0,0],[1,0,0],[0,1,0],[0.25,1,0],[0.5,1,0],[0.75,1,0],[1,1,0],[0,0.25,0],[0,0.5,0],[0,0.75,0],[1,0.25,0],[1,0.5,0],[1,0.75,0]];outlineConnect=0;fontColor=#232F3E;fillColor=#ED7100;strokeColor=#ffffff;dashed=0;verticalLabelPosition=bottom;verticalAlign=top;align=center;html=1;fontSize=12;fontStyle=0;aspect=fixed;shape=mxgraph.aws4.resourceIcon;resIcon=mxgraph.aws4.ec2;fontFamily=Helvetica;labelBackgroundColor=default;" parent="Khtyj_BIVU3kx0kz_q9r-19" vertex="1">
                    <mxGeometry x="40" y="67.10000000000002" width="78" height="78" as="geometry"/>
                </mxCell>
                <mxCell id="Khtyj_BIVU3kx0kz_q9r-22" value="&lt;font style=&quot;font-size: 14px;&quot;&gt;&lt;b&gt;App&lt;/b&gt;&lt;/font&gt;" style="sketch=0;points=[[0,0,0],[0.25,0,0],[0.5,0,0],[0.75,0,0],[1,0,0],[0,1,0],[0.25,1,0],[0.5,1,0],[0.75,1,0],[1,1,0],[0,0.25,0],[0,0.5,0],[0,0.75,0],[1,0.25,0],[1,0.5,0],[1,0.75,0]];outlineConnect=0;fontColor=#232F3E;fillColor=#ED7100;strokeColor=#ffffff;dashed=0;verticalLabelPosition=bottom;verticalAlign=top;align=center;html=1;fontSize=12;fontStyle=0;aspect=fixed;shape=mxgraph.aws4.resourceIcon;resIcon=mxgraph.aws4.ec2;fontFamily=Helvetica;labelBackgroundColor=default;" parent="Khtyj_BIVU3kx0kz_q9r-19" vertex="1">
                    <mxGeometry x="160" y="67.10000000000002" width="78" height="78" as="geometry"/>
                </mxCell>
                <mxCell id="Khtyj_BIVU3kx0kz_q9r-23" style="edgeStyle=none;rounded=0;orthogonalLoop=1;jettySize=auto;html=1;entryX=0.5;entryY=0;entryDx=0;entryDy=0;strokeColor=default;strokeWidth=1.5;align=center;verticalAlign=middle;fontFamily=Helvetica;fontSize=14;fontColor=#232F3E;fontStyle=1;labelBackgroundColor=default;endArrow=classic;" parent="1" source="Khtyj_BIVU3kx0kz_q9r-11" target="Khtyj_BIVU3kx0kz_q9r-19" edge="1">
                    <mxGeometry relative="1" as="geometry">
                        <mxPoint x="480" y="460.0000000000001" as="targetPoint"/>
                    </mxGeometry>
                </mxCell>
                <mxCell id="Khtyj_BIVU3kx0kz_q9r-11" value="&lt;font style=&quot;font-size: 14px;&quot;&gt;&lt;span style=&quot;font-size: 14px;&quot;&gt;ALB&lt;/span&gt;&lt;/font&gt;" style="sketch=0;points=[[0,0,0],[0.25,0,0],[0.5,0,0],[0.75,0,0],[1,0,0],[0,1,0],[0.25,1,0],[0.5,1,0],[0.75,1,0],[1,1,0],[0,0.25,0],[0,0.5,0],[0,0.75,0],[1,0.25,0],[1,0.5,0],[1,0.75,0]];outlineConnect=0;fontColor=#232F3E;fillColor=#ED7100;strokeColor=#ffffff;dashed=0;verticalLabelPosition=bottom;verticalAlign=top;align=center;html=1;fontSize=14;fontStyle=1;aspect=fixed;shape=mxgraph.aws4.resourceIcon;resIcon=mxgraph.aws4.elastic_load_balancing;fontFamily=Helvetica;labelBackgroundColor=default;" parent="1" vertex="1">
                    <mxGeometry x="440" y="317" width="78" height="78" as="geometry"/>
                </mxCell>
                <mxCell id="Khtyj_BIVU3kx0kz_q9r-24" value="&lt;font style=&quot;font-size: 14px;&quot;&gt;&lt;b&gt;RDS&lt;/b&gt;&lt;/font&gt;" style="sketch=0;points=[[0,0,0],[0.25,0,0],[0.5,0,0],[0.75,0,0],[1,0,0],[0,1,0],[0.25,1,0],[0.5,1,0],[0.75,1,0],[1,1,0],[0,0.25,0],[0,0.5,0],[0,0.75,0],[1,0.25,0],[1,0.5,0],[1,0.75,0]];outlineConnect=0;fontColor=#232F3E;fillColor=#C925D1;strokeColor=#ffffff;dashed=0;verticalLabelPosition=bottom;verticalAlign=top;align=center;html=1;fontSize=12;fontStyle=0;aspect=fixed;shape=mxgraph.aws4.resourceIcon;resIcon=mxgraph.aws4.rds;fontFamily=Helvetica;labelBackgroundColor=default;" parent="1" vertex="1">
                    <mxGeometry x="438" y="737.23" width="78" height="78" as="geometry"/>
                </mxCell>
                <mxCell id="Khtyj_BIVU3kx0kz_q9r-25" style="edgeStyle=none;rounded=0;orthogonalLoop=1;jettySize=auto;html=1;entryX=0.5;entryY=0;entryDx=0;entryDy=0;entryPerimeter=0;strokeColor=default;strokeWidth=1.5;align=center;verticalAlign=middle;fontFamily=Helvetica;fontSize=14;fontColor=#232F3E;fontStyle=1;labelBackgroundColor=default;endArrow=classic;" parent="1" source="Khtyj_BIVU3kx0kz_q9r-19" target="Khtyj_BIVU3kx0kz_q9r-24" edge="1">
                    <mxGeometry relative="1" as="geometry"/>
                </mxCell>
                <mxCell id="Khtyj_BIVU3kx0kz_q9r-33" value="Store CSV Metadata" style="edgeLabel;html=1;align=center;verticalAlign=middle;resizable=0;points=[];dashed=0;sketch=0;strokeColor=#ffffff;fontFamily=Helvetica;fontSize=13;fontColor=#232F3E;fontStyle=1;labelBackgroundColor=default;fillColor=#ED7100;" parent="Khtyj_BIVU3kx0kz_q9r-25" connectable="0" vertex="1">
                    <mxGeometry x="-0.0444" relative="1" as="geometry">
                        <mxPoint as="offset"/>
                    </mxGeometry>
                </mxCell>
                <mxCell id="Khtyj_BIVU3kx0kz_q9r-29" value="" style="edgeStyle=none;rounded=0;orthogonalLoop=1;jettySize=auto;html=1;strokeColor=default;strokeWidth=1.5;align=center;verticalAlign=middle;fontFamily=Helvetica;fontSize=14;fontColor=#232F3E;fontStyle=1;labelBackgroundColor=default;endArrow=classic;" parent="1" source="Khtyj_BIVU3kx0kz_q9r-26" target="Khtyj_BIVU3kx0kz_q9r-27" edge="1">
                    <mxGeometry relative="1" as="geometry"/>
                </mxCell>
                <mxCell id="Khtyj_BIVU3kx0kz_q9r-27" value="&lt;font style=&quot;font-size: 14px;&quot;&gt;&lt;b&gt;KMS&lt;/b&gt;&lt;/font&gt;" style="sketch=0;points=[[0,0,0],[0.25,0,0],[0.5,0,0],[0.75,0,0],[1,0,0],[0,1,0],[0.25,1,0],[0.5,1,0],[0.75,1,0],[1,1,0],[0,0.25,0],[0,0.5,0],[0,0.75,0],[1,0.25,0],[1,0.5,0],[1,0.75,0]];outlineConnect=0;fontColor=#232F3E;fillColor=#DD344C;strokeColor=#ffffff;dashed=0;verticalLabelPosition=bottom;verticalAlign=top;align=center;html=1;fontSize=12;fontStyle=0;aspect=fixed;shape=mxgraph.aws4.resourceIcon;resIcon=mxgraph.aws4.key_management_service;fontFamily=Helvetica;labelBackgroundColor=default;" parent="1" vertex="1">
                    <mxGeometry x="90" y="716.45" width="78" height="78" as="geometry"/>
                </mxCell>
                <mxCell id="Khtyj_BIVU3kx0kz_q9r-26" value="&lt;font style=&quot;font-size: 14px;&quot;&gt;&lt;b&gt;S3&lt;/b&gt;&lt;/font&gt;" style="sketch=0;points=[[0,0,0],[0.25,0,0],[0.5,0,0],[0.75,0,0],[1,0,0],[0,1,0],[0.25,1,0],[0.5,1,0],[0.75,1,0],[1,1,0],[0,0.25,0],[0,0.5,0],[0,0.75,0],[1,0.25,0],[1,0.5,0],[1,0.75,0]];outlineConnect=0;fontColor=#232F3E;fillColor=#7AA116;strokeColor=#ffffff;dashed=0;verticalLabelPosition=bottom;verticalAlign=top;align=center;html=1;fontSize=12;fontStyle=0;aspect=fixed;shape=mxgraph.aws4.resourceIcon;resIcon=mxgraph.aws4.s3;fontFamily=Helvetica;labelBackgroundColor=default;" parent="1" vertex="1">
                    <mxGeometry x="90" y="536.45" width="78" height="78" as="geometry"/>
                </mxCell>
                <mxCell id="Khtyj_BIVU3kx0kz_q9r-28" style="edgeStyle=none;rounded=0;orthogonalLoop=1;jettySize=auto;html=1;entryX=0.5;entryY=0;entryDx=0;entryDy=0;entryPerimeter=0;strokeColor=default;strokeWidth=1.5;align=center;verticalAlign=middle;fontFamily=Helvetica;fontSize=14;fontColor=#232F3E;fontStyle=1;labelBackgroundColor=default;endArrow=classic;" parent="1" source="Khtyj_BIVU3kx0kz_q9r-26" target="Khtyj_BIVU3kx0kz_q9r-27" edge="1">
                    <mxGeometry relative="1" as="geometry"/>
                </mxCell>
                <mxCell id="Khtyj_BIVU3kx0kz_q9r-32" value="Encrypt" style="edgeLabel;html=1;align=center;verticalAlign=middle;resizable=0;points=[];dashed=0;sketch=0;strokeColor=#ffffff;fontFamily=Helvetica;fontSize=13;fontColor=#232F3E;fontStyle=1;labelBackgroundColor=default;fillColor=#ED7100;" parent="Khtyj_BIVU3kx0kz_q9r-28" connectable="0" vertex="1">
                    <mxGeometry x="-0.0435" y="-2" relative="1" as="geometry">
                        <mxPoint y="7" as="offset"/>
                    </mxGeometry>
                </mxCell>
                <mxCell id="Khtyj_BIVU3kx0kz_q9r-30" value="&lt;font style=&quot;font-size: 14px;&quot;&gt;&lt;b&gt;SNS&lt;/b&gt;&lt;/font&gt;" style="sketch=0;points=[[0,0,0],[0.25,0,0],[0.5,0,0],[0.75,0,0],[1,0,0],[0,1,0],[0.25,1,0],[0.5,1,0],[0.75,1,0],[1,1,0],[0,0.25,0],[0,0.5,0],[0,0.75,0],[1,0.25,0],[1,0.5,0],[1,0.75,0]];outlineConnect=0;fontColor=#232F3E;fillColor=#E7157B;strokeColor=#ffffff;dashed=0;verticalLabelPosition=bottom;verticalAlign=top;align=center;html=1;fontSize=12;fontStyle=0;aspect=fixed;shape=mxgraph.aws4.resourceIcon;resIcon=mxgraph.aws4.sns;fontFamily=Helvetica;labelBackgroundColor=default;" parent="1" vertex="1">
                    <mxGeometry x="90" y="399" width="78" height="78" as="geometry"/>
                </mxCell>
                <mxCell id="Khtyj_BIVU3kx0kz_q9r-31" style="edgeStyle=none;rounded=0;orthogonalLoop=1;jettySize=auto;html=1;entryX=0.5;entryY=0;entryDx=0;entryDy=0;entryPerimeter=0;strokeColor=default;strokeWidth=1.5;align=center;verticalAlign=middle;fontFamily=Helvetica;fontSize=14;fontColor=#232F3E;fontStyle=1;labelBackgroundColor=default;endArrow=classic;" parent="1" source="lPzszU0twEAOWUQWt1GQ-22" target="Khtyj_BIVU3kx0kz_q9r-30" edge="1">
                    <mxGeometry relative="1" as="geometry"/>
                </mxCell>
                <mxCell id="Khtyj_BIVU3kx0kz_q9r-35" value="&lt;font style=&quot;font-size: 14px;&quot;&gt;&lt;b&gt;EFS Standard&lt;/b&gt;&lt;/font&gt;" style="sketch=0;points=[[0,0,0],[0.25,0,0],[0.5,0,0],[0.75,0,0],[1,0,0],[0,1,0],[0.25,1,0],[0.5,1,0],[0.75,1,0],[1,1,0],[0,0.25,0],[0,0.5,0],[0,0.75,0],[1,0.25,0],[1,0.5,0],[1,0.75,0]];outlineConnect=0;fontColor=#232F3E;fillColor=#7AA116;strokeColor=#ffffff;dashed=0;verticalLabelPosition=bottom;verticalAlign=top;align=center;html=1;fontSize=12;fontStyle=0;aspect=fixed;shape=mxgraph.aws4.resourceIcon;resIcon=mxgraph.aws4.efs_standard;fontFamily=Helvetica;labelBackgroundColor=default;" parent="1" vertex="1">
                    <mxGeometry x="260" y="737.23" width="78" height="78" as="geometry"/>
                </mxCell>
                <mxCell id="Khtyj_BIVU3kx0kz_q9r-38" value="App Repo" style="dashed=0;outlineConnect=0;html=1;align=center;labelPosition=center;verticalLabelPosition=bottom;verticalAlign=top;shape=mxgraph.weblogos.github;sketch=0;strokeColor=#ffffff;fontFamily=Helvetica;fontSize=14;fontColor=#232F3E;fontStyle=1;labelBackgroundColor=default;fillColor=#ED7100;" parent="1" vertex="1">
                    <mxGeometry x="940.5" y="200" width="75" height="75" as="geometry"/>
                </mxCell>
                <mxCell id="Khtyj_BIVU3kx0kz_q9r-39" style="edgeStyle=none;rounded=0;orthogonalLoop=1;jettySize=auto;html=1;strokeColor=default;strokeWidth=1.5;align=center;verticalAlign=middle;fontFamily=Helvetica;fontSize=14;fontColor=#232F3E;fontStyle=1;labelBackgroundColor=default;endArrow=classic;" parent="1" source="Khtyj_BIVU3kx0kz_q9r-9" target="Khtyj_BIVU3kx0kz_q9r-38" edge="1">
                    <mxGeometry relative="1" as="geometry">
                        <mxPoint x="1010" y="350" as="targetPoint"/>
                    </mxGeometry>
                </mxCell>
                <mxCell id="Khtyj_BIVU3kx0kz_q9r-40" value="&lt;font style=&quot;font-size: 13px;&quot;&gt;Docker CI/CD&lt;/font&gt;" style="edgeLabel;html=1;align=center;verticalAlign=middle;resizable=0;points=[];dashed=0;sketch=0;strokeColor=#ffffff;fontFamily=Helvetica;fontSize=14;fontColor=#232F3E;fontStyle=1;labelBackgroundColor=default;fillColor=#ED7100;" parent="Khtyj_BIVU3kx0kz_q9r-39" connectable="0" vertex="1">
                    <mxGeometry x="-0.2086" y="1" relative="1" as="geometry">
                        <mxPoint x="8" y="-2" as="offset"/>
                    </mxGeometry>
                </mxCell>
                <mxCell id="Khtyj_BIVU3kx0kz_q9r-56" value="App Instance:&lt;div&gt;- user-data: auto mount EFS&lt;br&gt;&lt;div&gt;- Docker Compose&lt;br&gt;&lt;/div&gt;&lt;/div&gt;&lt;div&gt;- Flask API: CSV files&lt;/div&gt;&lt;div&gt;- boto3&lt;/div&gt;" style="rounded=0;whiteSpace=wrap;html=1;dashed=0;sketch=0;align=left;verticalAlign=top;fontFamily=Helvetica;fontSize=13;fontStyle=0;labelBackgroundColor=default;" parent="1" vertex="1">
                    <mxGeometry x="230" y="320.45000000000005" width="180" height="100" as="geometry"/>
                </mxCell>
                <mxCell id="mq3SE_XhixBoud5put96-1" value="&lt;font style=&quot;font-size: 14px;&quot;&gt;&lt;b&gt;NAT/Bastion&lt;/b&gt;&lt;/font&gt;" style="sketch=0;points=[[0,0,0],[0.25,0,0],[0.5,0,0],[0.75,0,0],[1,0,0],[0,1,0],[0.25,1,0],[0.5,1,0],[0.75,1,0],[1,1,0],[0,0.25,0],[0,0.5,0],[0,0.75,0],[1,0.25,0],[1,0.5,0],[1,0.75,0]];outlineConnect=0;fontColor=#232F3E;fillColor=#ED7100;strokeColor=#ffffff;dashed=0;verticalLabelPosition=bottom;verticalAlign=top;align=center;html=1;fontSize=12;fontStyle=0;aspect=fixed;shape=mxgraph.aws4.resourceIcon;resIcon=mxgraph.aws4.ec2;fontFamily=Helvetica;labelBackgroundColor=default;" parent="1" vertex="1">
                    <mxGeometry x="590" y="317" width="78" height="78" as="geometry"/>
                </mxCell>
                <mxCell id="mq3SE_XhixBoud5put96-5" value="" style="edgeStyle=none;rounded=0;orthogonalLoop=1;jettySize=auto;html=1;strokeColor=default;strokeWidth=1.5;align=center;verticalAlign=middle;fontFamily=Helvetica;fontSize=14;fontColor=#232F3E;fontStyle=1;labelBackgroundColor=default;endArrow=classic;" parent="1" source="Khtyj_BIVU3kx0kz_q9r-19" edge="1">
                    <mxGeometry relative="1" as="geometry">
                        <mxPoint x="340" y="576" as="sourcePoint"/>
                        <mxPoint x="170" y="576" as="targetPoint"/>
                    </mxGeometry>
                </mxCell>
                <mxCell id="35aAqVW_dZEO3w4HAL-x-1" value="&lt;font style=&quot;font-size: 12px;&quot;&gt;&lt;b&gt;Upload CSV,&amp;nbsp;&amp;nbsp;&lt;/b&gt;&lt;/font&gt;&lt;div style=&quot;font-size: 12px;&quot;&gt;&lt;font style=&quot;font-size: 12px;&quot;&gt;&lt;b&gt;generate&amp;nbsp;&lt;/b&gt;&lt;/font&gt;&lt;/div&gt;&lt;div style=&quot;font-size: 12px;&quot;&gt;&lt;font style=&quot;font-size: 12px;&quot;&gt;&lt;b&gt;presigned URL&lt;/b&gt;&lt;/font&gt;&lt;/div&gt;" style="edgeLabel;html=1;align=center;verticalAlign=middle;resizable=0;points=[];" parent="mq3SE_XhixBoud5put96-5" connectable="0" vertex="1">
                    <mxGeometry x="0.3003" y="2" relative="1" as="geometry">
                        <mxPoint x="31" y="-2" as="offset"/>
                    </mxGeometry>
                </mxCell>
                <mxCell id="muPX8e16Yk-2uvlEu1JS-2" style="edgeStyle=none;rounded=0;orthogonalLoop=1;jettySize=auto;html=1;strokeColor=default;strokeWidth=1.5;align=center;verticalAlign=middle;fontFamily=Helvetica;fontSize=14;fontColor=#232F3E;fontStyle=1;labelBackgroundColor=default;endArrow=classic;" parent="1" source="muPX8e16Yk-2uvlEu1JS-4" target="muPX8e16Yk-2uvlEu1JS-5" edge="1">
                    <mxGeometry relative="1" as="geometry"/>
                </mxCell>
                <mxCell id="muPX8e16Yk-2uvlEu1JS-3" style="edgeStyle=none;rounded=0;orthogonalLoop=1;jettySize=auto;html=1;strokeColor=default;strokeWidth=1.5;align=center;verticalAlign=middle;fontFamily=Helvetica;fontSize=14;fontColor=#232F3E;fontStyle=1;labelBackgroundColor=default;endArrow=classic;" parent="1" source="muPX8e16Yk-2uvlEu1JS-4" target="muPX8e16Yk-2uvlEu1JS-6" edge="1">
                    <mxGeometry relative="1" as="geometry"/>
                </mxCell>
                <mxCell id="muPX8e16Yk-2uvlEu1JS-4" value="&lt;font style=&quot;font-size: 14px;&quot;&gt;&lt;b&gt;AWS Config&lt;/b&gt;&lt;/font&gt;" style="sketch=0;points=[[0,0,0],[0.25,0,0],[0.5,0,0],[0.75,0,0],[1,0,0],[0,1,0],[0.25,1,0],[0.5,1,0],[0.75,1,0],[1,1,0],[0,0.25,0],[0,0.5,0],[0,0.75,0],[1,0.25,0],[1,0.5,0],[1,0.75,0]];points=[[0,0,0],[0.25,0,0],[0.5,0,0],[0.75,0,0],[1,0,0],[0,1,0],[0.25,1,0],[0.5,1,0],[0.75,1,0],[1,1,0],[0,0.25,0],[0,0.5,0],[0,0.75,0],[1,0.25,0],[1,0.5,0],[1,0.75,0]];outlineConnect=0;fontColor=#232F3E;fillColor=#E7157B;strokeColor=#ffffff;dashed=0;verticalLabelPosition=bottom;verticalAlign=top;align=center;html=1;fontSize=12;fontStyle=0;aspect=fixed;shape=mxgraph.aws4.resourceIcon;resIcon=mxgraph.aws4.config;fontFamily=Helvetica;labelBackgroundColor=default;" parent="1" vertex="1">
                    <mxGeometry x="600" y="737.23" width="78" height="78" as="geometry"/>
                </mxCell>
                <mxCell id="muPX8e16Yk-2uvlEu1JS-5" value="" style="sketch=0;outlineConnect=0;fontColor=#232F3E;gradientColor=none;fillColor=#E7157B;strokeColor=none;dashed=0;verticalLabelPosition=bottom;verticalAlign=top;align=center;html=1;fontSize=12;fontStyle=0;aspect=fixed;pointerEvents=1;shape=mxgraph.aws4.rule_2;fontFamily=Helvetica;labelBackgroundColor=default;" parent="1" vertex="1">
                    <mxGeometry x="780" y="727" width="46" height="44.82" as="geometry"/>
                </mxCell>
                <mxCell id="muPX8e16Yk-2uvlEu1JS-6" value="" style="sketch=0;outlineConnect=0;fontColor=#232F3E;gradientColor=none;fillColor=#E7157B;strokeColor=none;dashed=0;verticalLabelPosition=bottom;verticalAlign=top;align=center;html=1;fontSize=12;fontStyle=0;aspect=fixed;pointerEvents=1;shape=mxgraph.aws4.rule_2;fontFamily=Helvetica;labelBackgroundColor=default;" parent="1" vertex="1">
                    <mxGeometry x="780" y="793.82" width="46" height="44.82" as="geometry"/>
                </mxCell>
                <mxCell id="muPX8e16Yk-2uvlEu1JS-7" value="&lt;font style=&quot;font-weight: normal; font-size: 13px;&quot;&gt;Tags:&lt;/font&gt;&lt;div style=&quot;font-size: 13px;&quot;&gt;&lt;div&gt;&lt;span style=&quot;font-weight: normal;&quot;&gt;- Group: CyberDevOps&lt;/span&gt;&lt;/div&gt;&lt;div&gt;&lt;span style=&quot;font-weight: normal;&quot;&gt;- Environment: development&lt;/span&gt;&lt;/div&gt;&lt;div&gt;&lt;span style=&quot;font-weight: normal;&quot;&gt;&lt;br&gt;&lt;/span&gt;&lt;/div&gt;&lt;div&gt;&lt;span style=&quot;font-weight: normal;&quot;&gt;Security Groups:&lt;/span&gt;&lt;/div&gt;&lt;div&gt;&lt;span style=&quot;font-weight: normal;&quot;&gt;- No unrestricted inbound&lt;/span&gt;&lt;/div&gt;&lt;/div&gt;" style="rounded=0;whiteSpace=wrap;html=1;dashed=0;sketch=0;align=left;verticalAlign=top;fontFamily=Helvetica;fontSize=14;fontStyle=1;labelBackgroundColor=default;strokeWidth=1.5;" parent="1" vertex="1">
                    <mxGeometry x="838.72" y="727" width="170" height="117.59" as="geometry"/>
                </mxCell>
            </root>
        </mxGraphModel>
    </diagram>
    <diagram id="Z3tuoZU9I4oKbicv695g" name="Build Base AMI Flow">
        <mxGraphModel dx="939" dy="746" grid="1" gridSize="10" guides="1" tooltips="1" connect="1" arrows="1" fold="1" page="1" pageScale="1" pageWidth="850" pageHeight="1100" math="0" shadow="0">
            <root>
                <mxCell id="0"/>
                <mxCell id="1" parent="0"/>
                <mxCell id="H3Cvv4SpYX2g76jmRnpe-5" value="" style="rounded=0;whiteSpace=wrap;html=1;align=right;verticalAlign=bottom;fontFamily=Helvetica;fontSize=14;fontColor=default;fontStyle=0;labelBackgroundColor=default;fillColor=none;gradientColor=none;labelPosition=left;verticalLabelPosition=top;strokeWidth=2;" parent="1" vertex="1">
                    <mxGeometry x="700" y="160" width="470" height="600" as="geometry"/>
                </mxCell>
                <mxCell id="uxfbm7J4ESUXp81vvgen-35" style="edgeStyle=none;rounded=0;orthogonalLoop=1;jettySize=auto;html=1;strokeColor=default;align=center;verticalAlign=middle;fontFamily=Helvetica;fontSize=14;fontColor=default;fontStyle=0;labelBackgroundColor=default;endArrow=classic;" parent="1" source="uxfbm7J4ESUXp81vvgen-1" target="uxfbm7J4ESUXp81vvgen-34" edge="1">
                    <mxGeometry relative="1" as="geometry"/>
                </mxCell>
                <mxCell id="uxfbm7J4ESUXp81vvgen-36" value="Compare,&lt;div&gt;set new id&lt;/div&gt;" style="edgeLabel;html=1;align=center;verticalAlign=middle;resizable=0;points=[];rounded=0;fontFamily=Helvetica;fontSize=14;fontColor=default;fontStyle=0;labelBackgroundColor=default;fillColor=none;gradientColor=none;" parent="uxfbm7J4ESUXp81vvgen-35" connectable="0" vertex="1">
                    <mxGeometry x="-0.0558" y="2" relative="1" as="geometry">
                        <mxPoint as="offset"/>
                    </mxGeometry>
                </mxCell>
                <mxCell id="uxfbm7J4ESUXp81vvgen-37" style="edgeStyle=none;rounded=0;orthogonalLoop=1;jettySize=auto;html=1;entryX=0.5;entryY=0;entryDx=0;entryDy=0;strokeColor=default;align=center;verticalAlign=middle;fontFamily=Helvetica;fontSize=14;fontColor=default;fontStyle=0;labelBackgroundColor=default;endArrow=classic;" parent="1" source="uxfbm7J4ESUXp81vvgen-1" target="uxfbm7J4ESUXp81vvgen-3" edge="1">
                    <mxGeometry relative="1" as="geometry"/>
                </mxCell>
                <mxCell id="uxfbm7J4ESUXp81vvgen-38" value="4. Trigger&lt;div&gt;if diffrenent&lt;/div&gt;" style="edgeLabel;html=1;align=center;verticalAlign=middle;resizable=0;points=[];rounded=0;fontFamily=Helvetica;fontSize=14;fontColor=default;fontStyle=0;labelBackgroundColor=default;fillColor=none;gradientColor=none;" parent="uxfbm7J4ESUXp81vvgen-37" connectable="0" vertex="1">
                    <mxGeometry x="-0.078" y="1" relative="1" as="geometry">
                        <mxPoint x="-1" y="16" as="offset"/>
                    </mxGeometry>
                </mxCell>
                <mxCell id="uxfbm7J4ESUXp81vvgen-1" value="&lt;font style=&quot;font-size: 14px;&quot;&gt;&lt;b&gt;Lambda Check AMI&lt;/b&gt;&lt;/font&gt;" style="sketch=0;points=[[0,0,0],[0.25,0,0],[0.5,0,0],[0.75,0,0],[1,0,0],[0,1,0],[0.25,1,0],[0.5,1,0],[0.75,1,0],[1,1,0],[0,0.25,0],[0,0.5,0],[0,0.75,0],[1,0.25,0],[1,0.5,0],[1,0.75,0]];outlineConnect=0;fontColor=#232F3E;fillColor=#ED7100;strokeColor=#ffffff;dashed=0;verticalLabelPosition=bottom;verticalAlign=top;align=center;html=1;fontSize=12;fontStyle=0;aspect=fixed;shape=mxgraph.aws4.resourceIcon;resIcon=mxgraph.aws4.lambda;fontFamily=Helvetica;labelBackgroundColor=default;" parent="1" vertex="1">
                    <mxGeometry x="750" y="400" width="78" height="78" as="geometry"/>
                </mxCell>
                <mxCell id="uxfbm7J4ESUXp81vvgen-2" value="&lt;font style=&quot;font-size: 14px;&quot;&gt;&lt;b&gt;EventBridge&lt;/b&gt;&lt;/font&gt;" style="sketch=0;points=[[0,0,0],[0.25,0,0],[0.5,0,0],[0.75,0,0],[1,0,0],[0,1,0],[0.25,1,0],[0.5,1,0],[0.75,1,0],[1,1,0],[0,0.25,0],[0,0.5,0],[0,0.75,0],[1,0.25,0],[1,0.5,0],[1,0.75,0]];outlineConnect=0;fontColor=#232F3E;fillColor=#E7157B;strokeColor=#ffffff;dashed=0;verticalLabelPosition=bottom;verticalAlign=top;align=center;html=1;fontSize=12;fontStyle=0;aspect=fixed;shape=mxgraph.aws4.resourceIcon;resIcon=mxgraph.aws4.eventbridge;fontFamily=Helvetica;labelBackgroundColor=default;" parent="1" vertex="1">
                    <mxGeometry x="750" y="200" width="78" height="78" as="geometry"/>
                </mxCell>
                <mxCell id="uxfbm7J4ESUXp81vvgen-3" value="Jenkins" style="shape=image;verticalLabelPosition=bottom;labelBackgroundColor=default;verticalAlign=top;aspect=fixed;imageAspect=0;image=https://upload.wikimedia.org/wikipedia/commons/thumb/e/e9/Jenkins_logo.svg/1200px-Jenkins_logo.svg.png;fontSize=14;fontStyle=1" parent="1" vertex="1">
                    <mxGeometry x="744.5" y="578.55" width="89" height="122.9" as="geometry"/>
                </mxCell>
                <mxCell id="uxfbm7J4ESUXp81vvgen-11" style="rounded=0;orthogonalLoop=1;jettySize=auto;html=1;exitX=0.5;exitY=0.875;exitDx=0;exitDy=0;exitPerimeter=0;" parent="1" source="uxfbm7J4ESUXp81vvgen-10" target="uxfbm7J4ESUXp81vvgen-17" edge="1">
                    <mxGeometry relative="1" as="geometry">
                        <mxPoint x="350" y="430" as="targetPoint"/>
                    </mxGeometry>
                </mxCell>
                <mxCell id="uxfbm7J4ESUXp81vvgen-10" value="&lt;font style=&quot;font-size: 14px;&quot;&gt;&lt;b&gt;Me&lt;/b&gt;&lt;/font&gt;" style="sketch=0;outlineConnect=0;fontColor=#232F3E;gradientColor=none;strokeColor=#232F3E;fillColor=#ffffff;dashed=0;verticalLabelPosition=bottom;verticalAlign=top;align=center;html=1;fontSize=12;fontStyle=0;aspect=fixed;shape=mxgraph.aws4.resourceIcon;resIcon=mxgraph.aws4.user;" parent="1" vertex="1">
                    <mxGeometry x="320" y="260" width="80" height="80" as="geometry"/>
                </mxCell>
                <mxCell id="uxfbm7J4ESUXp81vvgen-12" value="CentOS-Stream-9" style="outlineConnect=0;dashed=0;verticalLabelPosition=bottom;verticalAlign=top;align=center;html=1;shape=mxgraph.aws3.ami;fillColor=#F58534;gradientColor=none;fontSize=14;fontStyle=1" parent="1" vertex="1">
                    <mxGeometry x="150" y="598.5" width="80" height="81.5" as="geometry"/>
                </mxCell>
                <mxCell id="uxfbm7J4ESUXp81vvgen-13" value="Mock Source HIP AMI&lt;div&gt;CentOS-9-HIP-*&lt;/div&gt;" style="outlineConnect=0;dashed=0;verticalLabelPosition=bottom;verticalAlign=top;align=center;html=1;shape=mxgraph.aws3.ami;fillColor=#F58534;gradientColor=none;fontSize=14;fontStyle=1" parent="1" vertex="1">
                    <mxGeometry x="320" y="600" width="80" height="80" as="geometry"/>
                </mxCell>
                <mxCell id="eQC19Mwzs9H_TCHnzS81-2" style="edgeStyle=none;rounded=0;orthogonalLoop=1;jettySize=auto;html=1;strokeColor=default;align=center;verticalAlign=middle;fontFamily=Helvetica;fontSize=14;fontColor=default;fontStyle=0;labelBackgroundColor=default;endArrow=classic;" parent="1" source="uxfbm7J4ESUXp81vvgen-14" target="uxfbm7J4ESUXp81vvgen-15" edge="1">
                    <mxGeometry relative="1" as="geometry"/>
                </mxCell>
                <mxCell id="eQC19Mwzs9H_TCHnzS81-3" style="edgeStyle=none;rounded=0;orthogonalLoop=1;jettySize=auto;html=1;strokeColor=default;align=center;verticalAlign=middle;fontFamily=Helvetica;fontSize=14;fontColor=default;fontStyle=0;labelBackgroundColor=default;endArrow=classic;" parent="1" source="uxfbm7J4ESUXp81vvgen-14" target="uxfbm7J4ESUXp81vvgen-16" edge="1">
                    <mxGeometry relative="1" as="geometry"/>
                </mxCell>
                <mxCell id="uxfbm7J4ESUXp81vvgen-14" value="Base AMI&lt;div&gt;CentOS-9-Base-*&lt;/div&gt;" style="outlineConnect=0;dashed=0;verticalLabelPosition=bottom;verticalAlign=top;align=center;html=1;shape=mxgraph.aws3.ami;fillColor=#F58534;gradientColor=none;fontSize=14;fontStyle=1" parent="1" vertex="1">
                    <mxGeometry x="750" y="860" width="80" height="80" as="geometry"/>
                </mxCell>
                <mxCell id="uxfbm7J4ESUXp81vvgen-15" value="Jenkins AMI&lt;div&gt;CentOS-9-Jenkins-*&lt;/div&gt;" style="outlineConnect=0;dashed=0;verticalLabelPosition=bottom;verticalAlign=top;align=center;html=1;shape=mxgraph.aws3.ami;fillColor=#F58534;gradientColor=none;fontSize=14;fontStyle=1" parent="1" vertex="1">
                    <mxGeometry x="950" y="940" width="79" height="80" as="geometry"/>
                </mxCell>
                <mxCell id="uxfbm7J4ESUXp81vvgen-16" value="App AMI&lt;div&gt;CentOS-9-App-*&lt;/div&gt;" style="outlineConnect=0;dashed=0;verticalLabelPosition=bottom;verticalAlign=top;align=center;html=1;shape=mxgraph.aws3.ami;fillColor=#F58534;gradientColor=none;fontSize=14;fontStyle=1" parent="1" vertex="1">
                    <mxGeometry x="950" y="780" width="79" height="80" as="geometry"/>
                </mxCell>
                <mxCell id="uxfbm7J4ESUXp81vvgen-17" value="Packer" style="shape=image;verticalLabelPosition=bottom;labelBackgroundColor=default;verticalAlign=top;aspect=fixed;imageAspect=0;image=https://www.svgrepo.com/show/448247/packer.svg;fontSize=14;fontStyle=1" parent="1" vertex="1">
                    <mxGeometry x="320" y="400" width="81.5" height="81.5" as="geometry"/>
                </mxCell>
                <mxCell id="uxfbm7J4ESUXp81vvgen-18" style="edgeStyle=orthogonalEdgeStyle;rounded=0;orthogonalLoop=1;jettySize=auto;html=1;entryX=0.5;entryY=0;entryDx=0;entryDy=0;entryPerimeter=0;" parent="1" source="uxfbm7J4ESUXp81vvgen-17" target="uxfbm7J4ESUXp81vvgen-13" edge="1">
                    <mxGeometry relative="1" as="geometry"/>
                </mxCell>
                <mxCell id="uxfbm7J4ESUXp81vvgen-20" value="&lt;font style=&quot;font-size: 14px;&quot;&gt;1. Create&lt;/font&gt;" style="edgeLabel;html=1;align=center;verticalAlign=middle;resizable=0;points=[];" parent="uxfbm7J4ESUXp81vvgen-18" connectable="0" vertex="1">
                    <mxGeometry x="0.031" y="-3" relative="1" as="geometry">
                        <mxPoint x="3" y="4" as="offset"/>
                    </mxGeometry>
                </mxCell>
                <mxCell id="uxfbm7J4ESUXp81vvgen-22" value="Mock HIP Server" style="sketch=0;points=[[0,0,0],[0.25,0,0],[0.5,0,0],[0.75,0,0],[1,0,0],[0,1,0],[0.25,1,0],[0.5,1,0],[0.75,1,0],[1,1,0],[0,0.25,0],[0,0.5,0],[0,0.75,0],[1,0.25,0],[1,0.5,0],[1,0.75,0]];outlineConnect=0;fontColor=#232F3E;fillColor=#7AA116;strokeColor=#ffffff;dashed=0;verticalLabelPosition=bottom;verticalAlign=top;align=center;html=1;fontSize=14;fontStyle=1;aspect=fixed;shape=mxgraph.aws4.resourceIcon;resIcon=mxgraph.aws4.s3;" parent="1" vertex="1">
                    <mxGeometry x="520" y="401.08" width="78" height="78" as="geometry"/>
                </mxCell>
                <mxCell id="uxfbm7J4ESUXp81vvgen-23" style="rounded=0;orthogonalLoop=1;jettySize=auto;html=1;entryX=0;entryY=0.5;entryDx=0;entryDy=0;entryPerimeter=0;" parent="1" source="uxfbm7J4ESUXp81vvgen-17" target="uxfbm7J4ESUXp81vvgen-22" edge="1">
                    <mxGeometry relative="1" as="geometry"/>
                </mxCell>
                <mxCell id="uxfbm7J4ESUXp81vvgen-24" value="Text" style="edgeLabel;html=1;align=center;verticalAlign=middle;resizable=0;points=[];fontFamily=Helvetica;fontSize=11;fontColor=default;labelBackgroundColor=default;" parent="uxfbm7J4ESUXp81vvgen-23" connectable="0" vertex="1">
                    <mxGeometry x="-0.0784" y="-2" relative="1" as="geometry">
                        <mxPoint as="offset"/>
                    </mxGeometry>
                </mxCell>
                <mxCell id="uxfbm7J4ESUXp81vvgen-25" value="&lt;font style=&quot;font-size: 14px;&quot;&gt;2. Upload HIP&lt;/font&gt;&lt;div&gt;&lt;font style=&quot;font-size: 14px;&quot;&gt;AMI ID&lt;/font&gt;&lt;/div&gt;" style="edgeLabel;html=1;align=center;verticalAlign=middle;resizable=0;points=[];fontFamily=Helvetica;fontSize=11;fontColor=default;labelBackgroundColor=default;fillColor=none;gradientColor=none;" parent="uxfbm7J4ESUXp81vvgen-23" connectable="0" vertex="1">
                    <mxGeometry x="-0.0714" y="-1" relative="1" as="geometry">
                        <mxPoint as="offset"/>
                    </mxGeometry>
                </mxCell>
                <mxCell id="uxfbm7J4ESUXp81vvgen-26" style="edgeStyle=none;rounded=0;orthogonalLoop=1;jettySize=auto;html=1;entryX=0.5;entryY=0;entryDx=0;entryDy=0;entryPerimeter=0;strokeColor=default;align=center;verticalAlign=middle;fontFamily=Helvetica;fontSize=11;fontColor=default;labelBackgroundColor=default;endArrow=classic;" parent="1" source="uxfbm7J4ESUXp81vvgen-2" target="uxfbm7J4ESUXp81vvgen-1" edge="1">
                    <mxGeometry relative="1" as="geometry"/>
                </mxCell>
                <mxCell id="uxfbm7J4ESUXp81vvgen-30" value="3. Trigger&lt;div&gt;every day&lt;/div&gt;" style="edgeLabel;html=1;align=center;verticalAlign=middle;resizable=0;points=[];rounded=0;fontFamily=Helvetica;fontSize=14;fontColor=default;fontStyle=0;labelBackgroundColor=default;fillColor=none;gradientColor=none;" parent="uxfbm7J4ESUXp81vvgen-26" connectable="0" vertex="1">
                    <mxGeometry x="-0.1316" y="-1" relative="1" as="geometry">
                        <mxPoint x="1" y="14" as="offset"/>
                    </mxGeometry>
                </mxCell>
                <mxCell id="uxfbm7J4ESUXp81vvgen-31" style="edgeStyle=none;rounded=0;orthogonalLoop=1;jettySize=auto;html=1;exitX=0;exitY=0.5;exitDx=0;exitDy=0;exitPerimeter=0;strokeColor=default;align=center;verticalAlign=middle;fontFamily=Helvetica;fontSize=14;fontColor=default;fontStyle=0;labelBackgroundColor=default;endArrow=classic;" parent="1" source="uxfbm7J4ESUXp81vvgen-1" target="uxfbm7J4ESUXp81vvgen-1" edge="1">
                    <mxGeometry relative="1" as="geometry"/>
                </mxCell>
                <mxCell id="uxfbm7J4ESUXp81vvgen-32" style="edgeStyle=none;rounded=0;orthogonalLoop=1;jettySize=auto;html=1;entryX=1;entryY=0.5;entryDx=0;entryDy=0;entryPerimeter=0;strokeColor=default;align=center;verticalAlign=middle;fontFamily=Helvetica;fontSize=14;fontColor=default;fontStyle=0;labelBackgroundColor=default;endArrow=classic;" parent="1" source="uxfbm7J4ESUXp81vvgen-1" target="uxfbm7J4ESUXp81vvgen-22" edge="1">
                    <mxGeometry relative="1" as="geometry"/>
                </mxCell>
                <mxCell id="uxfbm7J4ESUXp81vvgen-33" value="Get latest&lt;div&gt;HIP AMI ID&lt;/div&gt;" style="edgeLabel;html=1;align=center;verticalAlign=middle;resizable=0;points=[];rounded=0;fontFamily=Helvetica;fontSize=14;fontColor=default;fontStyle=0;labelBackgroundColor=default;fillColor=none;gradientColor=none;" parent="uxfbm7J4ESUXp81vvgen-32" connectable="0" vertex="1">
                    <mxGeometry x="0.0019" y="3" relative="1" as="geometry">
                        <mxPoint x="-14" y="-2" as="offset"/>
                    </mxGeometry>
                </mxCell>
                <mxCell id="uxfbm7J4ESUXp81vvgen-34" value="Parameter Store&lt;div&gt;current_ami_id&lt;/div&gt;" style="sketch=0;outlineConnect=0;fontColor=#232F3E;gradientColor=none;fillColor=#E7157B;strokeColor=none;dashed=0;verticalLabelPosition=bottom;verticalAlign=top;align=center;html=1;fontSize=14;fontStyle=1;aspect=fixed;pointerEvents=1;shape=mxgraph.aws4.parameter_store;rounded=0;fontFamily=Helvetica;labelBackgroundColor=default;" parent="1" vertex="1">
                    <mxGeometry x="950" y="399" width="79" height="82.16" as="geometry"/>
                </mxCell>
                <mxCell id="uxfbm7J4ESUXp81vvgen-39" value="/images/aws/centos/latest" style="text;html=1;align=center;verticalAlign=middle;resizable=0;points=[];autosize=1;strokeColor=none;fillColor=none;fontFamily=Helvetica;fontSize=14;fontColor=default;fontStyle=0;labelBackgroundColor=default;" parent="1" vertex="1">
                    <mxGeometry x="469" y="370" width="180" height="30" as="geometry"/>
                </mxCell>
                <mxCell id="uxfbm7J4ESUXp81vvgen-40" style="edgeStyle=none;rounded=0;orthogonalLoop=1;jettySize=auto;html=1;entryX=0;entryY=0.5;entryDx=0;entryDy=0;entryPerimeter=0;strokeColor=default;align=center;verticalAlign=middle;fontFamily=Helvetica;fontSize=14;fontColor=default;fontStyle=0;labelBackgroundColor=default;endArrow=classic;" parent="1" source="uxfbm7J4ESUXp81vvgen-12" target="uxfbm7J4ESUXp81vvgen-13" edge="1">
                    <mxGeometry relative="1" as="geometry"/>
                </mxCell>
                <mxCell id="eQC19Mwzs9H_TCHnzS81-1" style="edgeStyle=orthogonalEdgeStyle;rounded=0;orthogonalLoop=1;jettySize=auto;html=1;entryX=0.5;entryY=0;entryDx=0;entryDy=0;entryPerimeter=0;strokeColor=default;align=center;verticalAlign=middle;fontFamily=Helvetica;fontSize=14;fontColor=default;fontStyle=0;labelBackgroundColor=default;endArrow=classic;" parent="1" source="uxfbm7J4ESUXp81vvgen-3" target="uxfbm7J4ESUXp81vvgen-14" edge="1">
                    <mxGeometry relative="1" as="geometry">
                        <Array as="points"/>
                    </mxGeometry>
                </mxCell>
                <mxCell id="eQC19Mwzs9H_TCHnzS81-4" value="5. Build&lt;div&gt;with Packer&lt;/div&gt;" style="edgeLabel;html=1;align=center;verticalAlign=middle;resizable=0;points=[];rounded=0;fontFamily=Helvetica;fontSize=14;fontColor=default;fontStyle=0;labelBackgroundColor=default;fillColor=none;gradientColor=none;" parent="eQC19Mwzs9H_TCHnzS81-1" connectable="0" vertex="1">
                    <mxGeometry x="-0.1831" y="2" relative="1" as="geometry">
                        <mxPoint x="-2" y="32" as="offset"/>
                    </mxGeometry>
                </mxCell>
                <mxCell id="H3Cvv4SpYX2g76jmRnpe-1" value="First time run:&lt;div style=&quot;font-size: 14px;&quot;&gt;- Manually build Jenkins AMI&lt;/div&gt;&lt;div style=&quot;font-size: 14px;&quot;&gt;- Terraform apply jenkins project&lt;/div&gt;" style="rounded=0;whiteSpace=wrap;html=1;dashed=0;sketch=0;align=left;verticalAlign=top;fontFamily=Helvetica;fontSize=14;fontStyle=0;labelBackgroundColor=default;" parent="1" vertex="1">
                    <mxGeometry x="100" y="360.00000000000006" width="180" height="100" as="geometry"/>
                </mxCell>
                <mxCell id="H3Cvv4SpYX2g76jmRnpe-2" value="Jenkins Jobs:&lt;div style=&quot;font-size: 14px;&quot;&gt;- &lt;b&gt;bootstrap&lt;/b&gt;&lt;/div&gt;&lt;div style=&quot;font-size: 14px;&quot;&gt;- &lt;b&gt;BuildBaseAMI&lt;/b&gt;(HIP_AMI_ID)&lt;/div&gt;&lt;div style=&quot;font-size: 14px;&quot;&gt;- &lt;b&gt;PythonAppCI&lt;/b&gt;: Check source code and publish image to ECR.&lt;/div&gt;&lt;div style=&quot;font-size: 14px;&quot;&gt;- &lt;b&gt;PythonAppCD&lt;/b&gt;: Build App AMI with code then deploy with terraform&lt;/div&gt;&lt;div style=&quot;font-size: 14px;&quot;&gt;- &lt;b&gt;DeployJenkinsMaster&lt;/b&gt;: Build Jenkins AMI and update Jenkins master instance&lt;/div&gt;" style="rounded=0;whiteSpace=wrap;html=1;dashed=0;sketch=0;align=left;verticalAlign=top;fontFamily=Helvetica;fontSize=14;fontStyle=0;labelBackgroundColor=default;" parent="1" vertex="1">
                    <mxGeometry x="860" y="560" width="278" height="160" as="geometry"/>
                </mxCell>
                <mxCell id="H3Cvv4SpYX2g76jmRnpe-6" value="&lt;b&gt;Terraform Jenkins Project&lt;/b&gt;" style="text;html=1;align=center;verticalAlign=middle;resizable=0;points=[];autosize=1;strokeColor=none;fillColor=none;fontFamily=Helvetica;fontSize=14;fontColor=default;fontStyle=0;labelBackgroundColor=default;" parent="1" vertex="1">
                    <mxGeometry x="700" y="160" width="200" height="30" as="geometry"/>
                </mxCell>
            </root>
        </mxGraphModel>
    </diagram>
</mxfile>